# xmcd
#
# Track frame offsets:
#	150
#	25672
#	50819
#	72893
#	94691
#	114924
#	135769
#	160869
#	175373
#	210591
#	230634
#	260459
#	286923
#	316743
#
# Disc length: 4589
#
# Revision: 2
# Processed by: cddbd v1.5.1PL0 Copyright (c) Steve Scherf et al.
# Submitted via: ExactAudioCopy v0.95a3
# Normalized: r0:TDELIM( - ),TSWAP
#
DISCID=b811eb0e
DTITLE=Various Artist - Highway 60's 70's Blues Revisited
DYEAR=2003
DGENRE=
TTITLE0=Alvin "Youngblood" Hart - Heartbreaker
TTITLE1=Eric Gales and Matt Tutor and Derek Trucks - Custard Pie
TTITLE2=Buddy Guy - Strange Brew
TTITLE3=R.L. Burnside - Everything Is Broken
TTITLE4=Magic Slim/James Cotton - When The Levee Breaks
TTITLE5=Luther Allison - You Can't Always Get What You Want
TTITLE6=Isaac Hayes - Lay Lady Lay
TTITLE7=Taj Mahal - Mercedes Benz
TTITLE8=Eric Gales and Derek Trucks - Layla
TTITLE9=Larry McCray - All Along The Watchtower
TTITLE10=Mavis Staples - Gotta Serve Somebody
TTITLE11=Junior Wells - (I Can't Get No) Satisfaction
TTITLE12=Etta James - Ball And Chain
TTITLE13=Carl Weathersby - Lay Down Sally
EXTD=
EXTT0=
EXTT1=
EXTT2=
EXTT3=
EXTT4=
EXTT5=
EXTT6=
EXTT7=
EXTT8=
EXTT9=
EXTT10=
EXTT11=
EXTT12=
EXTT13=
PLAYORDER=
